<svg xmlns="http://www.w3.org/2000/svg" viewBox="0 0 1200 120" role="img" aria-label="Pipeline NF Agent">
  <defs>
    <marker id="arrow" markerWidth="8" markerHeight="8" refX="7" refY="4" orient="auto">
      <path d="M0,0 L8,4 L0,8 Z" fill="#2563eb"/>
    </marker>
    <style>
      .box { fill:#f8fafc; stroke:#2563eb; stroke-width:1.5; rx:6; }
      .text { font: 11px Segoe UI, Arial, sans-serif; fill:#0f172a; text-anchor:middle; }
      .line { stroke:#2563eb; stroke-width:1.5; fill:none; marker-end:url(#arrow); }
    </style>
  </defs>
  <g transform="translate(10,40)">
    <rect class="box" x="0" y="0" width="108" height="40"/>
    <text class="text" x="54" y="17">Gmail / Demo</text>
    <text class="text" x="54" y="31">Inbox</text>
    <line class="line" x1="108" y1="20" x2="128" y2="20"/>
    <rect class="box" x="128" y="0" width="108" height="40"/>
    <text class="text" x="182" y="17">NF Agent em</text>
    <text class="text" x="182" y="31">Python</text>
    <line class="line" x1="236" y1="20" x2="256" y2="20"/>
    <rect class="box" x="256" y="0" width="108" height="40"/>
    <text class="text" x="310" y="17">ExtrańŃo</text>
    <text class="text" x="310" y="31">PDF/XML</text>
    <line class="line" x1="364" y1="20" x2="384" y2="20"/>
    <rect class="box" x="384" y="0" width="118" height="40"/>
    <text class="text" x="443" y="17">ValidańŃo e</text>
    <text class="text" x="443" y="31">Anti-duplicidade</text>
    <line class="line" x1="502" y1="20" x2="522" y2="20"/>
    <rect class="box" x="522" y="0" width="118" height="40"/>
    <text class="text" x="581" y="17">Biblioteca por</text>
    <text class="text" x="581" y="31">Fornecedor/Data</text>
    <line class="line" x1="640" y1="20" x2="660" y2="20"/>
    <rect class="box" x="660" y="0" width="108" height="40"/>
    <text class="text" x="714" y="17">CSV de</text>
    <text class="text" x="714" y="31">Auditoria</text>
    <line class="line" x1="768" y1="20" x2="788" y2="20"/>
    <rect class="box" x="788" y="0" width="72" height="40"/>
    <text class="text" x="824" y="25">SQLite</text>
    <line class="line" x1="860" y1="20" x2="880" y2="20"/>
    <rect class="box" x="880" y="0" width="118" height="40"/>
    <text class="text" x="939" y="17">Queries SQL</text>
    <text class="text" x="939" y="31">DRE/CMEF</text>
    <line class="line" x1="998" y1="20" x2="1018" y2="20"/>
    <rect class="box" x="1018" y="0" width="92" height="40"/>
    <text class="text" x="1064" y="25">RESULTS.md</text>
  </g>
</svg>
